<?xml version="1.0" encoding="UTF-8" standalone="no"?>
<svg
   xmlns:dc="http://purl.org/dc/elements/1.1/"
   xmlns:cc="http://creativecommons.org/ns#"
   xmlns:rdf="http://www.w3.org/1999/02/22-rdf-syntax-ns#"
   xmlns:svg="http://www.w3.org/2000/svg"
   xmlns="http://www.w3.org/2000/svg"
   xmlns:sodipodi="http://sodipodi.sourceforge.net/DTD/sodipodi-0.dtd"
   xmlns:inkscape="http://www.inkscape.org/namespaces/inkscape"
   width="159pt"
   height="152pt"
   viewBox="0 0 159 152"
   version="1.1"
   id="svg2"
   inkscape:version="0.48.4 r9939"
   sodipodi:docname="LOGO-HABLEMOS-WEB2.svg">
  <metadata
     id="metadata28">
    <rdf:RDF>
      <cc:Work
         rdf:about="">
        <dc:format>image/svg+xml</dc:format>
        <dc:type
           rdf:resource="http://purl.org/dc/dcmitype/StillImage" />
      </cc:Work>
    </rdf:RDF>
  </metadata>
  <defs
     id="defs26" />
  <sodipodi:namedview
     pagecolor="#ffffff"
     bordercolor="#666666"
     borderopacity="1"
     objecttolerance="10"
     gridtolerance="10"
     guidetolerance="10"
     inkscape:pageopacity="0"
     inkscape:pageshadow="2"
     inkscape:window-width="1301"
     inkscape:window-height="744"
     id="namedview24"
     showgrid="false"
     inkscape:zoom="1.2421053"
     inkscape:cx="99.375"
     inkscape:cy="71.163977"
     inkscape:window-x="65"
     inkscape:window-y="24"
     inkscape:window-maximized="1"
     inkscape:current-layer="svg2" />
  <path
     fill="#dc401a"
     d=" M 29.01 0.91 C 37.53 -0.82 46.30 6.38 46.45 15.05 C 47.38 23.01 41.10 31.03 33.06 31.70 C 24.69 32.78 16.60 25.40 16.68 17.01 C 16.08 9.57 21.52 2.09 29.01 0.91 Z"
     id="path6" />
  <path
     fill="#ef8524"
     d=" M 157.73 22.43 C 155.89 32.48 152.36 42.14 149.98 52.08 C 147.22 61.09 145.24 70.34 142.23 79.28 C 139.17 79.19 136.12 79.20 133.06 79.24 C 140.80 60.11 149.71 41.45 157.73 22.43 Z"
     id="path8" />
  <path
     fill="#437dbb"
     d=" M 45.74 38.79 C 47.77 35.97 50.14 33.41 52.92 31.31 C 58.79 36.92 64.73 42.46 70.74 47.93 C 61.87 57.75 52.96 67.54 44.33 77.57 C 36.92 77.78 29.50 77.67 22.09 77.63 C 29.53 64.43 36.76 51.03 45.74 38.79 Z"
     id="path10" />
  <path
     fill="#3b8f2c"
     d=" M 1.42 78.69 C 1.42 65.31 1.49 51.93 1.38 38.55 C 7.86 38.53 14.33 38.49 20.81 38.58 C 18.31 51.90 16.40 65.33 14.12 78.69 C 9.88 78.71 5.65 78.71 1.42 78.69 Z"
     id="path12" />
  <path
     fill="#3b8f2c"
     d=" M 97.51 39.69 C 106.99 37.47 117.81 41.78 122.51 50.43 C 125.39 55.60 124.44 62.90 119.37 66.35 C 111.26 72.04 99.70 69.63 92.73 63.21 C 88.55 59.46 86.10 53.40 87.88 47.87 C 89.32 43.63 93.29 40.76 97.51 39.69 Z"
     id="path14" />
  <path
     fill="#ef8524"
     d=" M 65.54 63.40 C 70.29 63.22 75.05 63.34 79.80 63.31 C 79.80 68.43 79.77 73.56 79.83 78.68 C 75.07 78.70 70.31 78.79 65.55 78.62 C 65.64 73.55 65.65 68.47 65.54 63.40 Z"
     id="path16" />
  <path
     fill="#ef8524"
     d=" M 83.00 111.92 C 88.15 99.32 93.03 86.62 98.36 74.11 C 103.01 91.47 107.66 108.84 112.08 126.27 C 113.14 125.48 113.69 124.28 114.16 123.10 C 119.17 111.13 124.37 99.24 129.33 87.24 C 133.20 87.10 137.07 87.15 140.95 87.19 C 136.12 102.93 131.84 118.87 126.71 134.48 C 120.43 134.71 114.13 134.55 107.84 134.53 C 104.22 127.95 100.45 121.46 96.93 114.83 C 93.18 121.21 90.32 128.08 86.88 134.63 C 81.83 134.49 76.78 134.67 71.73 134.50 C 70.31 118.71 68.89 102.92 67.29 87.15 C 71.25 87.16 75.22 87.14 79.18 87.21 C 79.30 98.23 79.08 109.26 79.28 120.28 C 80.97 117.71 81.79 114.72 83.00 111.92 Z"
     id="path18" />
  <path
     fill="#3b8f2c"
     d=" M 1.45 85.40 C 4.65 85.41 7.85 85.42 11.05 85.43 C 8.11 104.81 4.72 124.13 1.62 143.49 C 1.19 124.13 1.54 104.76 1.45 85.40 Z"
     id="path20" />
  <path
     fill="#437dbb"
     d=" M 20.39 87.19 C 26.52 87.12 32.64 87.21 38.77 87.12 C 33.55 96.77 30.33 108.40 33.82 119.18 C 36.33 127.40 42.52 133.93 49.58 138.55 C 58.84 144.39 69.44 147.74 80.15 149.70 C 70.02 149.20 60.25 145.91 51.00 141.93 C 39.67 136.84 28.91 129.00 23.29 117.63 C 18.58 108.26 18.22 97.30 20.39 87.19 Z"
     id="path22" />
</svg>
